<svg width="129" height="30" viewBox="0 0 129 30" fill="none" xmlns="http://www.w3.org/2000/svg">
<path d="M47.2392 4.97818H48.5737C51.4362 4.97818 52.2838 6.18071 52.2838 7.70158C52.2838 10.7492 50.6854 16.3257 45.7068 16.3257H43.774L47.2392 4.97818ZM44.9281 20.9458C53.7092 20.9458 58.6585 15.0215 58.6585 7.19463C58.6585 3.21563 56.3225 0.322755 50.747 0.322755H44.3738C43.8365 0.2914 43.303 0.431198 42.8493 0.722258C42.3957 1.01332 42.0449 1.44079 41.8471 1.94382L36.0648 20.9428L44.9281 20.9458ZM31.2901 20.9458C31.8263 20.9678 32.3557 20.8194 32.8033 20.5218C33.2508 20.2242 33.5936 19.7924 33.783 19.2878L34.7993 16.2874H25.3964L26.4229 12.8522H33.7816L35.3595 8.19674H27.8806L28.8572 4.97818H35.7496C36.2867 5.00066 36.8174 4.85452 37.2681 4.56006C37.7188 4.2656 38.067 3.83743 38.2645 3.33499L39.2661 0.321271H25.8378C25.3078 0.297041 24.7833 0.438687 24.3368 0.726666C23.8903 1.01464 23.5437 1.43477 23.3448 1.92909L17.5245 20.9399L31.2901 20.9458ZM10.4459 19.5767L22.0206 0.492217H17.1813C16.6018 0.479544 16.0294 0.623252 15.5239 0.90836C15.0184 1.19347 14.5982 1.60956 14.3071 2.1133L6.9821 15.356L6.24008 0.324217H1.87591C1.6318 0.295019 1.38429 0.320093 1.15089 0.397659C0.917497 0.475226 0.703908 0.603382 0.525253 0.773079C0.346598 0.942775 0.207248 1.14985 0.117041 1.37966C0.0268347 1.60947 -0.0120256 1.85641 0.00323517 2.10298L1.51075 20.9487H7.66988C8.20931 20.9604 8.74368 20.8423 9.22839 20.6041C9.71311 20.3659 10.1341 20.0147 10.4561 19.5796M86.7632 21.27C92.7844 21.27 95.7437 18.019 97.2908 13.701L91.7183 13.617C90.7358 15.6124 89.5186 16.6676 88.0052 16.6676C85.9625 16.6676 85.4037 15.4798 85.4037 13.5846C85.4037 10.957 87.36 4.6407 91.032 4.6407C92.8739 4.6407 93.3153 5.82851 93.3153 7.18285C93.3153 7.52327 93.2904 7.87106 93.2522 8.24538H99.1356C99.2948 7.60824 99.3834 6.95534 99.3996 6.29862C99.3996 2.69541 97.3818 0 91.7432 0C84.4198 0 78.8487 6.34725 78.8487 14.208C78.8487 18.999 82.3139 21.2685 86.7675 21.2685M113.564 0.322755C113.04 0.297016 112.522 0.440504 112.085 0.73222C111.649 1.02394 111.316 1.44853 111.137 1.94382L110.1 5.36428H115.862L111.062 20.9428H115.595C116.147 20.9646 116.693 20.8178 117.16 20.5219C117.627 20.2259 117.994 19.7947 118.213 19.2849L122.391 5.36428H125.48C126.014 5.38265 126.54 5.23438 126.987 4.93986C127.433 4.64535 127.778 4.21906 127.973 3.71963L129 0.318325L113.564 0.322755ZM101.743 20.9458C102.293 20.9682 102.837 20.8216 103.302 20.5254C103.767 20.2291 104.131 19.7974 104.346 19.2878L110.046 0.321271H105.562C105.03 0.291388 104.503 0.432378 104.056 0.723832C103.609 1.01529 103.267 1.44208 103.077 1.94235L97.2116 20.9414L101.743 20.9458ZM70.396 6.29862L70.3726 14.0385C69.6878 13.9194 68.9952 13.851 68.3005 13.8337C67.5164 13.8318 66.7352 13.9309 65.9761 14.1284L70.396 6.29862ZM62.1018 20.9458C62.9377 19.4623 64.1221 18.2071 65.5518 17.2895C66.9815 16.3719 68.6129 15.8199 70.3037 15.6817L70.2553 20.9458H76.7839V0.322755H70.3711C69.7482 0.291135 69.1275 0.4191 68.5672 0.694667C68.007 0.970233 67.5257 1.38434 67.1684 1.89812L54.7182 20.9458H62.1018ZM55.2094 24.238H1.77179C1.77179 24.238 1.97856 27.0779 2.09001 28.3865C2.17213 29.396 2.93469 30.1122 4.48034 29.9855C36.8157 27.3195 80.0277 26.1538 114.721 26.1538C115.384 26.1902 116.038 25.9932 116.572 25.5968C116.935 25.2152 117.202 24.7511 117.349 24.2439H55.1948L55.2094 24.238Z" fill="#212121"/>
</svg>
